<?xml version="1.0" standalone="no"?>
<!DOCTYPE svg PUBLIC "-//W3C//DTD SVG 20010904//EN"
 "http://www.w3.org/TR/2001/REC-SVG-20010904/DTD/svg10.dtd">
<svg version="1.0" xmlns="http://www.w3.org/2000/svg"
 width="1024.000000pt" height="1024.000000pt" viewBox="0 0 1024.000000 1024.000000"
 preserveAspectRatio="xMidYMid meet">

<g transform="translate(0.000000,1024.000000) scale(0.100000,-0.100000)"
fill="#000000" stroke="none">
<path d="M240 10214 c-124 -12 -228 -23 -232 -23 -5 -1 -8 -2294 -8 -5096 l0
-5095 5120 0 5120 0 0 5120 0 5120 -4887 -1 -4888 -2 -225 -23z m4925 -754
c361 -46 620 -143 925 -345 192 -128 342 -261 515 -460 62 -72 173 -251 241
-390 109 -226 165 -413 190 -635 21 -187 14 -322 -25 -509 -61 -285 -112 -419
-226 -591 -46 -69 -92 -136 -104 -149 -12 -13 -21 -27 -21 -30 -1 -22 -222
-243 -305 -305 -178 -134 -287 -199 -510 -302 -55 -25 -229 -86 -275 -96 -61
-13 -101 -20 -126 -22 -11 -1 -24 -5 -30 -8 -18 -11 -91 -19 -205 -23 -63 -2
-134 -8 -159 -12 -25 -4 -58 -7 -75 -6 -16 1 -108 4 -204 7 -199 7 -276 19
-451 74 -139 44 -427 180 -530 251 -170 117 -295 219 -398 325 -63 64 -118
116 -122 116 -13 0 -40 42 -34 52 3 4 1 8 -4 8 -5 0 -12 9 -15 21 -4 13 -10
18 -18 13 -7 -4 -10 -3 -6 3 4 6 -5 19 -19 29 -62 46 -204 352 -268 579 -54
191 -71 486 -41 700 17 122 70 333 117 464 103 287 322 596 563 792 172 140
307 220 540 319 95 40 315 102 407 115 24 3 72 10 108 15 156 24 377 24 565 0z
m3030 -1752 c18 -79 33 -181 29 -193 -4 -9 -19 -15 -35 -15 -26 0 -29 4 -29
30 0 23 -6 33 -25 40 -40 15 -57 3 -53 -39 3 -34 1 -36 -27 -36 -28 0 -30 3
-37 50 -12 94 -9 152 8 159 34 13 44 6 44 -28 0 -39 20 -60 50 -51 23 7 27 44
8 64 -11 10 -9 15 6 27 29 21 55 17 61 -8z m-317 -24 c13 -4 22 -14 22 -25 0
-15 -7 -19 -39 -19 -24 0 -41 -5 -44 -14 -7 -17 1 -26 22 -26 41 0 93 -23 103
-44 21 -48 -43 -106 -117 -106 -48 1 -75 19 -75 50 0 17 4 21 18 15 40 -16 78
-17 90 -2 11 13 5 17 -39 27 -65 16 -92 40 -83 78 4 15 12 33 18 41 21 27 75
38 124 25z m-252 -39 c19 -15 19 -15 0 -30 -11 -8 -35 -15 -53 -15 -18 0 -33
-2 -33 -4 0 -2 -3 -11 -6 -20 -5 -14 1 -15 40 -10 62 9 96 -9 96 -48 0 -16 -5
-38 -10 -49 -27 -49 -127 -65 -174 -28 -34 27 -33 39 3 39 42 0 91 20 91 37 0
12 -7 14 -27 9 -88 -20 -102 -20 -108 6 -7 29 9 75 37 106 17 17 32 22 73 22
30 0 59 -6 71 -15z m-5306 -330 c0 -51 13 -62 57 -48 20 7 28 17 30 34 0 13 1
30 2 37 2 22 44 9 57 -17 16 -31 29 -190 18 -201 -5 -5 -19 -7 -32 -4 -18 5
-22 13 -22 45 0 45 -17 58 -59 43 -23 -9 -26 -15 -24 -51 1 -29 -3 -43 -14
-47 -32 -13 -52 30 -74 163 -10 64 1 91 36 91 23 0 25 -4 25 -45z m-163 8 c21
-28 15 -36 -26 -30 -46 6 -87 -15 -62 -32 8 -5 35 -12 60 -16 57 -9 71 -20 71
-57 0 -21 -11 -41 -35 -65 -33 -33 -39 -35 -86 -31 -59 6 -89 29 -73 56 6 9
26 18 45 20 25 2 30 0 19 -7 -12 -9 -12 -11 3 -17 23 -8 47 2 47 20 0 18 -13
27 -70 47 -32 11 -46 22 -48 37 -4 29 25 81 51 92 31 13 89 4 104 -17z m-269
-9 c24 -7 11 -20 -47 -47 -62 -29 -78 -50 -67 -93 7 -28 50 -59 67 -49 7 5 9
25 4 62 l-7 55 44 -7 c57 -10 58 -11 58 -50 0 -77 -30 -106 -112 -109 -45 -1
-52 2 -78 34 -31 37 -46 86 -36 117 8 25 65 83 91 93 18 7 47 5 83 -6z m7876
-1544 c27 -10 57 -61 87 -149 35 -99 19 -117 -47 -53 -35 33 -39 35 -42 17 -9
-45 -48 -62 -54 -23 -5 35 -26 33 -30 -4 -2 -25 -8 -33 -23 -33 -24 0 -34 43
-34 151 -1 69 0 72 27 82 15 6 41 13 57 15 17 2 31 5 32 6 1 0 13 -3 27 -9z
m-157 -24 c2 -2 -12 -15 -32 -30 -40 -31 -43 -53 -20 -130 20 -66 19 -76 -9
-76 -21 0 -26 7 -36 50 -7 28 -12 66 -12 86 0 28 -5 37 -25 45 -32 12 -26 29
17 51 30 15 103 18 117 4z m-588 -249 c1 -23 7 -73 14 -112 10 -57 15 -70 30
-69 10 1 69 5 131 9 l114 7 4 -99 c2 -58 -1 -101 -6 -105 -9 -6 -58 -12 -171
-22 -27 -2 -30 -6 -33 -39 -3 -37 21 -244 39 -340 12 -63 38 -106 68 -114 22
-5 89 4 157 23 20 5 24 -2 48 -103 24 -100 25 -109 9 -120 -45 -34 -240 -66
-307 -51 -78 18 -135 80 -172 189 -13 37 -35 148 -49 246 -14 98 -32 198 -39
223 -13 43 -15 45 -52 46 -44 0 -47 7 -59 127 l-7 77 31 6 c17 4 35 11 40 18
5 7 2 51 -8 116 -10 58 -16 108 -15 111 2 3 41 9 86 12 46 3 94 10 108 15 31
12 36 4 39 -51z m-2249 -153 c0 -48 81 -551 140 -869 37 -199 55 -300 55 -310
0 -5 -58 -19 -128 -30 l-129 -22 -10 26 c-13 35 -35 153 -53 286 -29 219 -69
455 -76 447 -6 -6 -39 -93 -165 -427 -12 -33 -32 -82 -44 -110 -12 -27 -36
-88 -52 -135 -17 -47 -35 -91 -41 -98 -7 -9 -32 -12 -81 -10 l-71 3 -53 100
c-30 55 -73 125 -95 155 -23 30 -65 87 -92 125 -28 39 -97 128 -153 199 -98
123 -102 127 -102 94 0 -37 14 -143 60 -462 37 -256 37 -264 8 -270 -75 -13
-196 -37 -214 -42 -19 -5 -23 0 -33 43 -13 58 -29 170 -37 261 -17 210 -37
386 -54 489 -11 64 -27 175 -35 247 -8 72 -17 145 -21 163 -8 39 -13 37 175
52 153 13 143 16 204 -74 22 -33 128 -177 235 -319 107 -143 201 -274 210
-293 9 -18 21 -33 27 -33 11 0 200 466 260 645 50 148 48 145 98 146 23 0 80
6 127 13 99 15 140 18 140 10z m-1790 -44 c97 -27 150 -153 98 -230 -39 -56
-73 -75 -137 -75 -62 0 -102 23 -135 77 -43 70 -1 175 89 222 35 19 39 19 85
6z m3649 -39 c18 -12 40 -216 25 -231 -6 -6 -42 -14 -82 -19 -39 -5 -92 -19
-117 -31 -73 -35 -125 -119 -125 -201 0 -41 44 -361 59 -430 5 -21 6 -41 2
-47 -3 -5 -39 -13 -79 -17 -41 -4 -88 -11 -105 -16 -63 -18 -62 -18 -77 114
-18 158 -30 257 -51 397 -29 207 -38 270 -45 334 -3 33 -8 65 -11 71 -3 9 17
15 69 19 40 4 89 9 109 12 40 6 34 16 69 -123 6 -24 14 -43 19 -43 4 0 29 31
54 69 57 82 102 115 182 135 73 17 86 18 104 7z m-4770 -227 c16 -71 37 -178
46 -239 10 -60 19 -113 21 -116 2 -3 28 18 59 47 120 113 266 148 437 105 195
-50 288 -145 344 -352 12 -45 18 -104 18 -199 1 -151 -5 -173 -71 -250 -43
-50 -85 -78 -184 -120 -188 -81 -361 -66 -464 40 -44 45 -53 40 -54 -30 -2
-73 -8 -80 -65 -80 -46 0 -82 -7 -142 -25 -26 -8 -25 -10 -54 225 -11 91 -47
320 -79 510 -33 190 -66 390 -75 445 -9 55 -19 110 -22 122 -5 19 -1 23 33 28
85 13 197 36 202 41 10 9 21 -26 50 -152z m3794 80 c82 -21 128 -46 167 -90
41 -47 58 -87 75 -178 19 -101 73 -482 77 -541 l3 -50 -85 -11 c-47 -7 -89
-13 -95 -14 -25 -6 -33 3 -45 45 -15 54 -25 63 -40 35 -19 -35 -113 -98 -175
-116 -38 -11 -97 -18 -160 -18 -84 -1 -108 3 -151 22 -142 65 -205 226 -141
366 26 56 81 108 156 146 61 31 225 60 336 60 105 0 107 2 81 65 -29 68 -151
114 -263 100 -67 -8 -164 -39 -219 -69 l-42 -23 -11 38 c-6 20 -27 61 -46 90
-20 28 -34 53 -33 54 13 12 217 86 255 94 82 15 288 13 356 -5z m-5377 -192
c13 -52 30 -137 38 -190 9 -54 32 -194 51 -312 19 -118 41 -273 50 -345 8 -71
23 -185 32 -252 11 -81 14 -126 7 -133 -11 -11 -162 -40 -210 -40 l-31 0 -16
113 c-9 61 -28 184 -41 272 -14 88 -32 216 -41 285 -24 177 -83 534 -101 601
-7 31 -14 59 -14 62 0 11 167 36 224 33 28 -1 30 -4 52 -94z m2834 -37 c0 -14
11 -77 25 -141 14 -63 32 -166 40 -230 16 -119 45 -294 70 -411 22 -105 21
-111 -22 -118 -21 -4 -76 -15 -122 -25 -46 -11 -88 -17 -93 -14 -4 3 -8 20 -8
37 0 18 -5 50 -11 72 -22 83 -38 188 -69 445 -17 146 -34 288 -39 317 l-8 51
52 7 c28 3 71 12 96 20 69 22 89 19 89 -10z m-3455 -25 c90 -29 152 -56 192
-86 l32 -24 -47 -61 c-99 -128 -97 -126 -129 -107 -78 46 -247 61 -357 33
-195 -51 -305 -177 -314 -360 -7 -142 44 -250 156 -332 86 -62 161 -86 272
-86 106 0 165 16 244 66 l48 31 -7 80 c-3 45 -10 85 -15 89 -4 5 -69 1 -143
-8 -75 -10 -143 -15 -151 -12 -11 4 -15 24 -15 77 0 40 -3 92 -7 116 l-6 44
45 0 c44 0 207 18 377 42 47 7 90 13 95 13 21 0 47 -119 77 -358 l31 -247 -24
-26 c-34 -37 -158 -96 -187 -89 -13 3 -43 -4 -70 -16 -148 -66 -228 -78 -389
-55 -331 46 -524 208 -594 501 -49 208 9 448 143 584 97 99 224 171 358 203
104 24 287 19 385 -12z m1550 -185 c195 -53 321 -178 370 -366 40 -152 -15
-314 -148 -436 -102 -93 -228 -137 -384 -136 -145 2 -250 44 -356 142 -105 99
-167 259 -153 398 4 33 12 76 18 95 19 55 87 155 132 195 50 44 151 97 228
118 65 18 207 14 293 -10z m5091 -688 c38 -33 24 -47 -46 -47 -95 0 -142 -39
-126 -105 9 -36 39 -62 85 -75 46 -12 73 -3 92 31 14 27 4 37 -21 21 -29 -18
-39 -15 -51 15 -9 23 -7 30 10 44 23 19 110 16 123 -4 5 -6 7 -41 6 -77 l-3
-65 -55 -18 c-78 -26 -142 -12 -207 48 -45 40 -48 46 -47 89 3 122 157 214
240 143z m1082 -11 c2 -10 0 -22 -5 -27 -13 -13 -696 -85 -713 -74 -5 3 -10
16 -10 29 0 21 7 23 88 34 48 6 173 18 277 27 105 9 219 20 255 24 87 11 104
9 108 -13z m-1434 -114 c23 -100 31 -182 17 -182 -17 0 -121 53 -167 84 -21
14 -42 22 -47 17 -4 -4 -3 -29 3 -56 6 -26 8 -50 6 -53 -13 -12 -39 12 -58 54
-17 41 -19 52 -9 86 11 34 15 38 44 38 18 0 56 -11 85 -25 30 -14 58 -25 63
-25 5 0 9 27 9 59 0 114 27 116 54 3z m-856 28 c23 -11 42 -26 42 -35 0 -23
-47 -37 -105 -30 -49 7 -55 5 -89 -25 -20 -18 -36 -40 -36 -49 0 -29 58 -110
83 -116 13 -4 43 -5 68 -3 39 3 44 6 44 28 0 23 -3 25 -42 23 -24 -1 -43 3
-43 8 0 30 24 48 76 59 70 15 81 7 90 -72 6 -56 6 -58 -28 -92 -78 -78 -184
-62 -295 43 -54 52 -49 154 11 214 67 67 144 84 224 47z m-375 -27 c10 -12 19
-55 27 -123 6 -58 13 -113 16 -123 8 -27 -6 -98 -21 -103 -7 -3 -54 35 -106
85 -50 50 -94 90 -96 88 -1 -2 4 -43 13 -90 18 -98 12 -117 -35 -117 -27 0
-28 2 -40 93 -16 125 -23 236 -16 258 10 32 42 22 74 -23 32 -47 71 -86 113
-112 l26 -17 -5 79 c-7 104 12 146 50 105z m-376 -35 c17 -27 43 -157 49 -245
6 -82 5 -93 -9 -93 -22 0 -44 36 -52 85 -4 22 -16 85 -27 140 -18 95 -18 100
-2 112 22 16 31 16 41 1z m1211 -51 c62 -63 59 -68 -59 -82 -36 -4 -59 -3 -63
3 -6 11 19 86 37 110 17 22 42 13 85 -31z m-1350 -11 c34 -22 57 -78 46 -112
-20 -63 -48 -84 -109 -84 -40 0 -40 -2 -20 -60 17 -49 11 -85 -12 -76 -8 3
-20 6 -28 6 -21 0 -31 34 -76 245 -23 112 -24 105 9 99 15 -2 47 -1 72 4 53
11 74 7 118 -22z m-319 -15 c38 -27 55 -71 48 -123 -7 -50 -21 -62 -90 -79
-29 -6 -55 -16 -59 -22 -3 -6 0 -31 8 -56 8 -25 14 -47 14 -47 0 -1 -7 -5 -16
-8 -25 -10 -63 4 -70 26 -12 38 -52 301 -48 313 3 7 38 12 94 14 77 2 94 -1
119 -18z m-350 -38 c115 -87 79 -284 -56 -309 -97 -18 -213 63 -213 148 0 147
160 243 269 161z m-379 -2 c5 -11 10 -35 11 -53 0 -18 8 -80 18 -138 20 -117
16 -145 -20 -145 -26 0 -36 25 -38 99 l-1 38 -72 -7 c-40 -4 -77 -10 -82 -12
-8 -5 -4 -45 10 -104 4 -20 1 -27 -21 -37 -15 -7 -30 -10 -34 -7 -12 7 -30
104 -41 221 -5 55 -12 108 -16 117 -7 20 16 32 50 23 21 -5 24 -13 29 -71 2
-37 6 -68 8 -69 2 -2 36 -1 74 3 l70 6 1 70 c0 39 1 73 2 78 4 15 42 6 52 -12z
m-420 -31 c20 0 50 -25 50 -41 0 -5 -9 -18 -20 -29 -16 -16 -31 -20 -68 -18
-44 3 -47 1 -47 -22 0 -22 7 -26 60 -40 73 -20 105 -36 106 -55 1 -8 2 -21 3
-27 8 -55 -63 -128 -125 -128 -38 0 -111 29 -123 49 -13 21 24 33 82 26 51 -6
60 -4 77 15 19 22 19 22 0 36 -10 8 -34 14 -52 14 -69 0 -123 48 -123 107 0
54 99 132 148 117 8 -2 22 -4 32 -4z m-553 -175 c12 -61 23 -120 23 -132 0
-27 7 -28 76 -6 30 9 56 14 60 11 3 -4 7 -21 7 -39 l2 -32 -105 -18 c-58 -10
-105 -17 -106 -16 -5 8 -34 251 -34 283 0 43 15 66 39 62 11 -2 22 -37 38
-113z m-288 66 c12 -16 21 -31 21 -34 0 -3 23 -45 51 -94 70 -120 85 -159 69
-178 -20 -24 -50 -19 -50 8 0 13 -6 31 -13 41 -12 17 -23 18 -90 12 l-76 -8
-8 -41 c-7 -33 -13 -43 -32 -45 -13 -2 -27 0 -32 5 -11 11 17 117 68 261 39
113 55 125 92 73z m-303 -48 c21 -22 25 -35 22 -68 -3 -22 -8 -47 -11 -55 -5
-10 0 -19 15 -25 52 -24 50 -95 -5 -133 -31 -21 -206 -66 -217 -55 -3 2 -15
70 -26 151 -12 81 -25 157 -29 169 -6 19 -2 22 47 31 29 5 81 10 116 11 57 1
66 -2 88 -26z m-428 -38 c44 -19 79 -50 99 -89 64 -122 -88 -290 -222 -246
-44 14 -101 78 -114 127 -18 68 15 138 92 194 46 33 88 37 145 14z m-458 -62
c0 -16 7 -53 15 -83 8 -30 15 -76 15 -102 0 -53 -4 -51 88 -48 l62 2 0 -36 c0
-22 -5 -36 -12 -36 -36 -1 -127 -13 -158 -21 -48 -12 -46 -13 -46 24 -1 17 -6
94 -14 171 -13 147 -12 155 33 156 12 0 17 -8 17 -27z m-200 -23 c41 -41 13
-65 -64 -56 -48 6 -56 5 -84 -19 -102 -86 -14 -223 111 -176 29 11 44 48 28
64 -8 8 -17 7 -35 -2 -30 -17 -49 -6 -40 22 9 32 33 47 75 47 65 0 69 -5 69
-79 -1 -90 -21 -112 -116 -130 -59 -11 -105 1 -150 41 -46 41 -64 77 -64 131
0 56 45 128 97 156 53 28 146 28 173 1z m-554 -218 c-8 -24 -20 -26 -217 -47
-175 -18 -355 -41 -428 -55 -73 -14 -78 -13 -84 10 -12 45 -3 46 518 110 94
12 175 23 180 24 18 6 37 -21 31 -42z m4593 -167 c156 -47 290 -191 347 -370
54 -169 53 -335 -1 -450 -62 -130 -286 -259 -505 -290 -90 -12 -104 -16 -89
-27 10 -7 5 -8 -18 -6 -18 3 -30 1 -27 -4 3 -4 -14 -11 -36 -14 -26 -4 -60
-21 -91 -45 -48 -39 -49 -39 -140 -39 -103 0 -378 -33 -455 -55 -60 -17 -190
-31 -368 -40 -70 -4 -153 -13 -183 -21 -76 -20 -81 -18 -92 22 -22 78 -55 89
-162 52 -53 -18 -88 -22 -209 -22 -141 -1 -147 0 -216 30 -40 17 -93 45 -118
63 -26 17 -50 31 -54 31 -7 0 39 -42 72 -66 32 -22 8 -30 -30 -9 -52 28 -100
88 -150 190 -57 116 -74 187 -74 303 0 113 19 192 68 287 64 123 207 241 342
284 60 19 342 54 530 66 47 3 96 8 110 10 26 5 250 29 410 45 52 5 183 18 290
30 107 11 240 25 295 30 55 5 132 14 170 20 149 22 302 20 384 -5z m1639 -328
c50 -46 17 -117 -56 -117 -28 0 -35 5 -48 35 -21 52 -18 78 14 97 31 20 57 15
90 -15z m-298 -14 c34 -23 40 -33 40 -69 0 -67 -89 -93 -123 -35 -23 39 -22
76 3 101 24 24 48 25 80 3z m-256 -19 c38 -37 2 -134 -49 -134 -28 0 -65 47
-65 82 0 40 27 68 65 68 18 0 41 -7 49 -16z m-288 -22 c19 -12 34 -49 34 -81
0 -24 -7 -34 -30 -46 -50 -26 -87 -20 -110 17 -23 38 -19 64 16 96 25 22 68
29 90 14z m-3742 -443 c74 -58 -14 -159 -108 -123 -22 8 -40 78 -26 104 23 44
90 53 134 19z m-324 -29 c22 -22 26 -60 10 -91 -12 -21 -60 -49 -84 -49 -19 0
-44 36 -52 77 -13 65 79 110 126 63z m-286 -39 c10 -11 20 -37 23 -58 4 -30 1
-42 -15 -57 -18 -15 -26 -16 -55 -6 -40 12 -47 25 -47 79 0 29 5 40 23 49 33
16 52 14 71 -7z m-132 -66 c10 -48 -2 -63 -37 -47 -30 14 -35 65 -7 81 26 16
36 8 44 -34z m3208 -434 c0 -38 -24 -44 -128 -36 -125 10 -151 9 -198 -11 -26
-11 -65 -16 -114 -16 -68 1 -158 -18 -185 -38 -5 -5 -46 -11 -90 -15 -44 -4
-96 -13 -115 -19 -19 -7 -55 -11 -80 -9 -25 1 -78 -5 -118 -14 -72 -16 -74
-16 -94 5 -11 11 -18 27 -15 35 7 19 44 25 232 37 88 5 203 14 255 20 52 6
154 17 226 24 72 7 137 17 144 21 16 10 176 32 238 34 35 1 42 -2 42 -18z
m-129 -113 c38 -21 80 -61 95 -90 17 -32 18 -91 3 -121 -20 -39 -72 -86 -107
-98 -76 -25 -199 27 -228 98 -30 70 9 178 76 215 39 22 119 20 161 -4z m-685
-88 c105 -50 142 -120 110 -205 -20 -52 -79 -103 -132 -115 -93 -21 -214 68
-214 158 0 65 42 134 105 173 41 25 57 24 131 -11z"/>
<path d="M4615 9244 c-125 -21 -182 -33 -295 -65 -123 -35 -361 -149 -435
-208 -27 -23 -66 -51 -85 -64 -54 -37 -228 -206 -311 -302 -107 -124 -253
-395 -312 -580 -110 -342 -113 -671 -11 -998 39 -123 172 -375 266 -502 174
-236 430 -448 688 -572 150 -71 144 -69 225 -97 229 -81 571 -123 796 -97 387
44 763 198 1046 428 113 91 274 266 348 378 272 408 340 1025 163 1475 -16 41
-35 80 -41 85 -7 6 -14 19 -15 30 -2 11 -16 35 -32 55 -15 19 -25 41 -23 48 3
6 0 12 -6 12 -6 0 -11 8 -11 18 -1 20 -24 54 -33 46 -6 -7 -30 33 -34 59 -4
26 -22 57 -32 57 -5 0 -21 21 -36 46 -38 64 -154 194 -228 255 -34 28 -84 70
-111 92 -27 23 -63 51 -80 63 -98 66 -157 104 -162 104 -2 0 -21 10 -42 23
-20 13 -50 29 -67 34 -16 6 -84 32 -150 58 -183 70 -369 116 -495 121 -289 11
-409 11 -485 -2z m789 -233 c174 -62 472 -229 576 -321 117 -105 240 -235 240
-254 0 -18 -95 -35 -375 -66 -55 -6 -112 -13 -127 -16 -24 -5 -27 -2 -42 48
-15 52 -89 182 -175 308 -52 76 -223 247 -304 305 -31 22 -56 45 -57 51 0 13
179 -24 264 -55z m-502 21 c18 -16 69 -54 113 -86 176 -127 369 -357 473 -563
l21 -41 -82 -11 c-45 -5 -156 -17 -247 -26 -91 -9 -177 -20 -191 -25 -26 -8
-27 -7 -38 48 -6 32 -20 131 -31 222 -25 204 -25 206 -61 363 -16 70 -27 132
-24 137 11 17 33 11 67 -18z m-600 -135 c-129 -190 -215 -391 -247 -574 -8
-47 -15 -87 -15 -89 0 -2 -21 -4 -47 -4 -46 0 -216 -12 -413 -30 -52 -4 -97
-6 -100 -3 -7 7 45 97 124 212 136 200 354 398 556 505 95 50 202 97 209 91 2
-2 -29 -51 -67 -108z m382 -69 c75 -431 89 -535 75 -544 -8 -5 -419 -32 -513
-34 -16 0 -17 5 -11 38 21 116 130 366 216 495 44 65 176 207 194 207 5 0 23
-73 39 -162z m1674 -605 c71 -101 181 -385 182 -469 0 -39 -1 -39 -259 -54
-102 -6 -222 -15 -266 -20 -130 -16 -121 -21 -134 68 -22 136 -91 393 -112
417 -25 26 -2 32 169 46 73 5 174 16 225 23 148 22 172 21 195 -11z m-803 -59
c33 -13 82 -144 120 -326 32 -150 32 -176 3 -182 -13 -3 -154 -17 -314 -31
-160 -14 -300 -28 -312 -32 -20 -5 -22 -1 -22 33 0 22 -9 107 -20 189 -37 275
-39 290 -32 297 4 4 66 12 137 18 211 16 418 35 422 39 1 0 9 -2 18 -5z m-775
-73 c5 -11 17 -84 25 -163 8 -79 20 -179 25 -223 13 -106 13 -113 -7 -119 -20
-6 -191 -21 -403 -36 -74 -5 -158 -12 -186 -16 l-52 -7 -1 104 c-1 57 -4 124
-7 149 -6 51 13 291 24 301 4 4 108 12 232 17 358 14 338 15 350 -7z m-775
-58 c-4 -15 -9 -134 -10 -263 -2 -129 -4 -238 -4 -242 -1 -8 -75 -16 -226 -23
-151 -6 -389 -23 -433 -31 l-33 -5 6 63 c10 114 17 162 32 233 22 102 63 238
77 252 6 6 54 15 106 18 241 18 292 21 389 23 l103 3 -7 -28z m2571 -560 c-3
-32 -8 -94 -12 -138 -7 -101 -10 -121 -35 -228 -17 -70 -25 -90 -42 -97 -19
-8 -258 -30 -467 -44 -36 -2 -72 -5 -80 -7 -10 -3 -14 2 -11 16 2 11 4 128 5
260 l2 240 85 12 c46 7 169 17 274 23 104 7 192 14 194 16 2 2 24 4 49 4 l44
0 -6 -57z m-842 -64 c8 -77 6 -393 -3 -434 -5 -26 -11 -31 -51 -36 -104 -15
-544 -43 -562 -37 -9 4 -14 25 -16 63 -1 31 -13 125 -26 208 -35 219 -37 235
-29 240 9 5 208 23 358 32 55 4 127 10 160 13 33 4 83 8 111 10 l51 2 7 -61z
m-875 -91 c7 -46 19 -125 27 -177 21 -134 29 -247 17 -254 -11 -7 -53 -10
-348 -29 -287 -17 -268 -18 -276 17 -3 17 -21 84 -38 150 -18 66 -36 158 -40
205 -5 47 -12 93 -16 103 -4 9 -6 17 -4 17 2 0 42 5 89 10 47 5 139 13 205 16
66 4 149 10 185 14 36 4 93 8 126 9 l62 1 11 -82z m-840 -125 c22 -149 65
-328 82 -350 6 -6 6 -14 1 -17 -10 -6 -158 -20 -382 -37 -80 -5 -161 -12 -181
-15 l-36 -6 -23 64 c-12 34 -42 104 -66 153 -40 84 -84 228 -84 274 0 15 10
23 38 30 45 12 195 29 337 37 55 4 102 8 104 10 2 2 46 4 96 4 l91 0 23 -147z
m2381 -412 c0 -6 -9 -16 -21 -25 -12 -8 -33 -32 -47 -53 -46 -68 -116 -147
-225 -255 -69 -68 -100 -85 -137 -75 -11 3 -20 0 -20 -6 0 -8 -3 -9 -8 -1 -6
9 -68 44 -79 44 -1 0 -3 -5 -3 -11 0 -5 6 -7 13 -3 8 5 8 2 -2 -9 -19 -24 -39
-21 -43 6 -2 18 -8 11 -31 -33 -15 -30 -41 -77 -57 -105 -16 -27 -34 -59 -39
-70 -15 -35 -113 -131 -118 -117 -3 8 8 30 24 50 124 156 218 352 268 557 21
86 23 90 51 93 170 17 474 25 474 13z m-727 -47 c3 -4 -3 -29 -14 -58 -11 -28
-29 -76 -40 -106 -10 -30 -23 -64 -29 -75 -5 -11 -14 -33 -20 -48 -5 -15 -23
-36 -40 -45 -16 -9 -37 -32 -47 -50 -11 -20 -23 -30 -32 -27 -16 6 -43 -13
-36 -26 3 -4 12 -6 19 -3 16 6 30 -22 16 -31 -6 -4 -10 -1 -10 6 0 10 -3 10
-12 0 -10 -11 -10 -14 -1 -18 14 -5 -27 -71 -82 -132 -93 -105 -113 -124 -122
-118 -6 4 -14 37 -17 74 -4 38 -16 133 -27 213 -35 268 -48 395 -40 403 11 11
174 27 366 36 83 4 153 9 156 9 3 1 8 -1 12 -4z m-744 -136 c7 -51 17 -131 22
-178 6 -47 15 -113 20 -147 5 -35 12 -89 15 -120 3 -32 10 -78 14 -103 5 -25
5 -49 0 -54 -14 -14 -110 37 -180 94 -107 89 -264 246 -302 302 -20 29 -63 97
-96 150 -47 76 -57 98 -45 102 9 4 70 11 137 17 66 5 162 13 211 18 50 5 113
9 141 10 l51 1 12 -92z m-725 -60 c61 -134 197 -333 302 -440 87 -89 105 -121
42 -76 -47 34 -92 53 -183 78 -83 23 -203 76 -302 134 -32 19 -120 94 -197
167 -76 74 -153 144 -172 157 -19 12 -34 26 -34 31 0 10 82 20 170 22 36 0
108 7 160 14 52 7 112 12 133 11 l38 -1 43 -97z"/>
<path d="M5340 6213 c0 -10 -9 -31 -20 -48 -24 -36 -25 -42 -5 -42 10 0 20 16
27 44 7 31 15 43 24 39 8 -3 14 1 14 9 0 8 -9 15 -20 15 -12 0 -20 -7 -20 -17z"/>
<path d="M6106 6084 c-11 -7 -18 -16 -15 -18 2 -2 13 2 23 10 11 7 18 16 15
18 -2 2 -13 -2 -23 -10z"/>
<path d="M5544 5795 c-10 -8 -14 -14 -9 -15 15 0 40 18 34 24 -3 3 -14 -1 -25
-9z"/>
<path d="M5498 5784 c-6 -5 -14 -7 -121 -25 -101 -17 -86 -30 18 -15 87 13
135 29 118 39 -6 4 -12 4 -15 1z"/>
<path d="M9687 5717 c-22 -16 -11 -28 42 -46 46 -15 51 -14 51 8 0 36 -62 62
-93 38z"/>
<path d="M4174 4609 c-22 -5 -65 -24 -95 -42 -98 -58 -131 -164 -89 -287 29
-86 50 -113 109 -139 130 -56 260 -50 345 14 75 58 91 89 90 172 -2 117 -59
209 -163 262 -46 24 -141 33 -197 20z"/>
<path d="M7480 4609 c-63 -7 -132 -38 -154 -71 -30 -42 -15 -107 34 -145 21
-17 136 -16 196 2 70 20 125 78 131 138 5 39 2 47 -18 60 -28 18 -112 25 -189
16z"/>
<path d="M2963 4461 c-36 -9 -81 -36 -101 -60 -7 -9 -25 -40 -39 -70 -47 -98
-19 -220 68 -295 80 -68 225 -77 313 -18 156 105 150 325 -13 415 -42 24 -67
31 -125 33 -39 2 -86 -1 -103 -5z"/>
<path d="M6086 3733 c-15 -16 -2 -113 16 -113 21 0 78 33 78 44 0 24 -80 83
-94 69z"/>
<path d="M5763 3700 c-19 -8 -22 -14 -17 -42 10 -53 25 -62 68 -44 42 17 47
45 16 76 -22 22 -33 23 -67 10z"/>
<path d="M5400 3663 c-27 -10 -59 -45 -65 -73 -8 -37 8 -74 45 -100 28 -20 36
-21 70 -11 55 16 83 55 77 106 -9 64 -67 100 -127 78z"/>
<path d="M3837 3445 c-10 -27 -17 -52 -17 -57 0 -11 38 -10 61 2 25 14 24 39
-5 74 l-23 30 -16 -49z"/>
<path d="M3442 3468 c-16 -16 -15 -57 2 -64 19 -7 85 22 93 42 3 9 0 20 -8 25
-20 13 -73 11 -87 -3z"/>
<path d="M3484 3349 c-32 -9 -48 -37 -37 -66 13 -32 143 2 143 38 0 4 -7 15
-16 23 -17 18 -43 19 -90 5z"/>
<path d="M3044 3411 c-41 -25 -64 -59 -64 -91 0 -33 55 -88 95 -95 62 -12 143
70 124 125 -24 67 -99 97 -155 61z"/>
<path d="M6125 2698 c-207 -32 -236 -35 -297 -26 -35 4 -71 11 -80 14 -12 3
-18 0 -18 -9 0 -17 -20 -23 -105 -32 -33 -4 -95 -13 -137 -20 -65 -12 -82 -12
-109 -1 -29 12 -37 12 -73 -8 -37 -19 -58 -21 -206 -22 -91 -1 -182 -6 -203
-12 -21 -6 -91 -16 -155 -22 -65 -6 -133 -16 -153 -21 l-36 -9 38 -73 c34 -65
62 -131 134 -309 13 -31 36 -76 52 -100 16 -23 46 -73 67 -111 20 -37 49 -75
63 -84 25 -17 28 -16 94 20 l68 37 33 -20 c38 -23 90 -26 107 -6 17 21 131 39
208 33 46 -3 77 0 94 9 44 22 202 39 245 26 30 -9 44 -8 73 5 20 8 77 18 128
20 l92 6 15 46 c48 149 148 599 144 644 -4 36 -6 37 -83 25z m-31 -165 c-8
-32 -16 -87 -19 -122 -3 -36 -10 -68 -17 -72 -9 -6 -193 -34 -223 -34 -15 0
-5 46 20 90 13 22 26 61 29 87 4 26 15 56 24 68 17 20 85 36 163 39 l36 1 -13
-57z m-380 9 c3 -5 8 -63 12 -130 l7 -121 -24 -5 c-38 -8 -97 -15 -186 -22
l-83 -7 0 89 c0 49 -3 112 -6 140 l-6 51 82 1 c46 1 86 4 88 7 9 8 110 6 116
-3z m-384 -19 c3 -55 24 -164 39 -197 10 -24 15 -49 11 -56 -7 -11 -197 -49
-252 -50 -39 0 -47 22 -49 141 -2 120 -19 103 141 142 118 30 110 28 110 20z
m-395 -75 c9 -23 21 -66 26 -95 6 -30 21 -70 35 -90 32 -48 23 -56 -90 -77
-101 -18 -116 -13 -116 38 0 17 -18 76 -39 131 -21 55 -37 101 -36 103 3 4
152 29 181 31 17 1 26 -9 39 -41z m1081 -284 c-8 -73 -18 -90 -57 -98 -63 -12
-107 -7 -114 13 -7 24 1 101 12 112 9 9 94 26 137 28 l29 1 -7 -56z m-292 -10
c9 -22 7 -102 -1 -107 -21 -13 -208 -26 -218 -15 -3 2 -6 31 -7 64 l-3 59 60
6 c122 12 162 10 169 -7z m-348 -16 c12 -20 7 -110 -6 -118 -23 -14 -182 -42
-191 -33 -14 14 -41 135 -32 143 19 20 218 26 229 8z m-333 -98 c25 -89 25
-88 -35 -79 -29 4 -65 12 -80 18 -25 9 -58 55 -58 80 0 13 84 39 126 40 29 1
32 -2 47 -59z"/>
<path d="M4930 2290 c-8 -5 -10 -10 -5 -10 6 0 17 5 25 10 8 5 11 10 5 10 -5
0 -17 -5 -25 -10z"/>
<path d="M4826 2272 c-2 -4 13 -6 35 -4 21 2 39 6 39 8 0 7 -69 4 -74 -4z"/>
</g>
</svg>
